<svg width="289" height="75" viewBox="0 0 289 75" fill="none" xmlns="http://www.w3.org/2000/svg">
<path d="M194.519 41.2155C196.519 38.4383 198.185 36.0499 199.963 33.717C206.295 25.6074 214.516 21.4416 224.958 21.7749C235.845 22.1081 246.12 24.6632 256.007 29.1068C257.285 29.7178 258.674 30.2177 260.062 30.4954C260.562 30.6065 261.506 29.9955 261.784 29.4401C262.062 28.8846 262.062 27.7737 261.728 27.3849C259.896 25.5519 257.896 23.9411 256.007 22.2193C251.342 17.9979 246.509 13.9431 242.066 9.55503C239.288 6.7778 239.289 3.88949 241.399 1.72324C243.343 -0.276365 245.398 -0.498517 248.398 1.33446C250.897 2.83417 253.286 4.66711 255.674 6.44454C259.507 9.33287 263.173 12.4434 267.116 15.2762C271.004 18.1089 275.059 20.8306 280.225 20.4974C280.947 20.4418 281.725 20.6085 282.391 20.7751C285.946 21.6638 287.89 23.6634 288.168 26.6628C288.446 29.7733 287.057 32.6061 283.669 33.4393C270.449 36.5498 263.895 46.9366 257.285 57.2124C255.119 60.6006 253.675 64.4888 251.508 67.9881C250.175 70.1543 248.398 72.0984 246.398 73.7092C243.621 75.931 239.4 74.0425 238.733 70.4876C238.011 66.7106 238.789 63.1001 240.566 59.7675C243.843 53.602 247.231 47.4921 250.897 40.7712C246.898 37.3274 241.566 36.9941 236.844 35.8832C231.901 34.7168 226.624 34.5502 221.459 34.4946C216.737 34.4946 213.071 37.1052 210.183 40.7712C208.572 42.8263 207.128 44.9926 205.962 47.2699C202.685 53.602 196.019 56.4348 189.021 53.3798C183.299 50.8803 177.467 48.5474 171.802 45.8813C167.136 43.715 162.692 40.9378 158.027 38.8271C148.806 34.6613 140.141 35.4389 132.087 41.9931C126.366 46.6589 120.701 51.4913 114.48 55.4905C99.427 65.2109 82.1525 64.4332 67.7664 53.9353C65.378 52.2134 63.2673 49.9916 60.7123 48.5475C56.2687 45.9924 51.7696 43.1596 46.9372 41.5488C30.8848 36.1609 16.1099 43.4928 10.3333 59.2675C9.44456 61.7115 9.00018 64.3221 7.94483 66.655C7.44492 67.7659 5.88959 68.8212 4.66761 68.9879C2.55691 69.2656 1.33495 67.5992 0.946141 65.7107C0.00188112 61.2116 0.668418 56.8236 2.33476 52.6577C7.83368 38.716 17.9984 30.551 32.8843 28.5514C44.8265 26.9406 55.5466 30.6065 65.4336 37.1052C68.4885 39.1603 71.3213 41.5488 74.3207 43.7706C85.6519 52.2133 98.0383 52.5466 109.314 44.5482C114.424 40.9378 119.367 36.9941 124.144 32.8838C136.142 22.4969 149.362 21.386 163.47 27.3849C168.58 29.5511 173.301 32.495 178.245 35.0501C183.077 37.494 187.799 40.4934 194.519 41.2155Z" fill="currentColor"/>
</svg>
