<svg width="483" height="420" viewBox="0 0 483 420" fill="none" xmlns="http://www.w3.org/2000/svg">
<path d="M297.744 410L10 212.606M297.744 410L358.264 144.104M297.744 410L472.147 113.583M297.744 410L138.308 185.577M10 212.606L44.5986 79.0554M10 212.606L138.308 185.577M358.264 144.104L138.308 185.577M358.264 144.104L218.351 10M358.264 144.104L388.199 10M358.264 144.104L472.147 113.583M44.5986 79.0554L138.308 185.577M44.5986 79.0554L218.351 10M138.308 185.577L218.351 10M218.351 10H388.199M388.199 10L472.147 113.583" stroke="currentColor" stroke-width="20" stroke-linejoin="round"/>
</svg>
