<svg width="24" height="24" viewBox="0 0 24 24" fill="none" xmlns="http://www.w3.org/2000/svg">
<g clip-path="url(#clip0_201_91)">
<path d="M12.5938 0C15.7148 0.106987 18.6128 1.17684 20.7306 3.95851C23.9631 8.238 25.3006 12.9454 22.4026 17.5459C17.944 24.6071 11.925 25.677 5.12571 21.7184C0.444231 18.9368 -0.893341 12.8385 0.555688 8.13103C2.00472 3.10264 6.6862 0 12.5938 0ZM5.68303 15.7271C6.01742 16.369 6.35179 16.904 6.57472 17.5459C6.79765 18.0808 7.24351 18.2948 7.80083 18.2948C8.46961 18.2948 8.804 18.0808 8.91547 17.5459C9.02693 16.904 8.69253 16.797 8.24668 16.69C7.35497 16.476 6.57474 15.8341 5.68303 15.7271C5.01424 14.4433 4.12252 13.2664 4.34545 11.6616C4.7913 9.30788 5.23716 6.84717 5.57156 4.60044C6.46326 4.38646 6.90913 4.60046 7.35498 4.92142C8.58108 5.67033 9.80717 6.09826 11.3677 5.67031C11.925 5.56332 12.5938 5.67032 13.2625 5.7773C14.4886 5.99128 15.4918 5.88428 16.495 5.02838C17.7211 4.06549 18.2784 4.38648 18.3899 5.99129C18.5013 7.48911 18.3899 8.98695 19.0587 10.4848C20.1733 12.8385 18.9472 15.8341 15.8262 16.69C15.2689 16.797 14.823 17.011 15.046 17.7599C15.3804 19.0437 15.1574 20.4346 15.8262 21.7184C19.9504 19.8996 21.9567 17.4389 22.514 13.5874C22.737 11.9825 22.4026 10.2708 21.9567 8.77293C19.5045 0.320942 12.5938 -0.641923 6.12887 2.67468C3.56521 3.95853 2.00471 6.52624 1.33593 9.41489C0.778612 11.7686 1.4474 13.9083 2.00472 16.1551C2.78497 18.7228 4.56839 20.3275 7.02059 21.3974C7.35498 21.6114 7.9123 21.9324 8.13522 21.2904C8.35815 20.7555 8.13523 20.3276 7.35498 20.2206C6.24034 20.1136 5.1257 19.8996 4.79131 18.7227C4.56839 17.6529 3.67668 16.904 3.11936 16.1551C4.01107 15.6201 4.90278 16.0481 5.68303 15.7271Z" fill="var(--foreground)"/>
</g>
<defs>
<clipPath id="clip0_201_91">
<rect width="24" height="24" fill="white"/>
</clipPath>
</defs>
</svg>
