<svg width="3337" height="69" viewBox="0 0 3337 69" fill="none" xmlns="http://www.w3.org/2000/svg">
<path d="M525.238 57.8835C519.59 57.6952 519.566 59.2017 524.815 58.9663C530.228 58.731 530.722 58.0483 525.238 57.8835Z" fill="#2fcec3"/>
<path d="M775.777 61.7203C772.082 61.6262 771.941 63.0385 776.177 63.1327C780.649 63.2504 779.284 61.8145 775.777 61.7203Z" fill="#2fcec3"/>
<path d="M663.135 53.8816C656.851 53.9522 651.885 54.2582 652.05 54.5643C652.403 55.1527 700.863 56.5416 701.357 55.2234C701.946 53.6463 664.806 53.8816 663.135 53.9052V53.8816Z" fill="#2fcec3"/>
<path d="M708.676 55.106C707.947 55.2943 707.923 55.4591 708.582 55.9063C709.053 56.2123 718.632 56.7538 729.858 57.1304C753.512 57.8836 754.124 58.1426 755.936 57.3187C758.031 56.3536 709.594 54.8706 708.676 55.106Z" fill="#2fcec3"/>
<path d="M545.362 57.6481C541.549 57.5775 539.195 57.8129 539.195 58.2601C539.195 58.778 547.009 59.0134 564.661 59.0604C592.904 59.1546 598.623 59.3665 599.423 58.5661C600.2 57.7658 556.565 57.8364 545.362 57.6481Z" fill="#2fcec3"/>
<path d="M606.084 58.2599C603.73 58.7071 615.592 59.5545 617.946 58.6365C620.888 57.5066 607.59 57.9774 606.084 58.2599Z" fill="#2fcec3"/>
<path d="M640.305 53.8113C638.14 54.1644 606.673 53.6936 598.388 53.1993C595.799 53.0424 595.446 52.807 597.329 52.4931C599.965 52.0459 599.871 52.0224 596.129 51.9517C593.916 51.9282 592.269 52.1401 592.433 52.4225C592.951 53.2935 589.986 53.8113 588.738 53.0816C586.479 51.7399 583.866 54.6587 582.807 52.6579C582.36 51.834 581.419 51.6457 578.877 51.8576C576.994 52.0223 575.37 52.3519 575.158 52.6108C574.617 53.2699 566.732 53.0816 567.156 52.4225C567.556 51.787 559.86 50.8689 558.589 52.093C557.553 53.0816 547.739 52.8462 547.763 51.834C547.763 51.5045 547.362 51.4809 546.892 51.787C546.398 52.093 544.632 52.6579 542.961 53.0345C540.466 53.5995 539.831 53.5524 539.549 52.7756C539.337 52.2107 538.207 51.8105 536.654 51.7634C534.794 51.7164 534.371 51.8811 535.124 52.399C535.924 52.9404 535.665 53.1052 534.065 53.1287C530.252 53.1758 527.028 52.752 526.675 52.14C526.322 51.528 514.059 51.2926 514.036 51.9047C514.036 52.2107 512.624 52.1871 507.352 51.7163C506.151 51.5986 481.439 51.5516 473.79 52.2813C473.484 52.3048 473.413 52.6815 473.672 53.0816C473.907 53.4818 473.46 53.9997 472.636 54.188C471.836 54.3763 471.342 54.8235 471.53 55.1766C472.542 56.7773 641.435 55.5061 643.318 55.6474C644.377 55.718 645.412 55.5061 645.648 55.1295C646.283 54.1644 643.012 53.3641 640.258 53.8113H640.305Z" fill="#2fcec3"/>
<path d="M843.442 67.1578C843.277 67.1813 843.042 67.2049 842.783 67.2284C841.465 66.993 837.346 67.0165 829.014 67.2284C828.379 67.2284 827.744 67.2755 827.108 67.2755C826.473 67.2755 825.837 67.2519 825.202 67.2284C816.87 67.0165 812.728 66.993 811.433 67.2284C811.151 67.2284 810.915 67.1813 810.774 67.1578C808.562 66.7812 808.138 66.8753 808.774 67.5344C809.974 68.7585 818.729 68.8291 827.108 68.8291C835.487 68.8291 844.266 68.7585 845.442 67.5344C846.078 66.8753 845.654 66.7812 843.442 67.1578Z" fill="#2fcec3"/>
<path d="M532.087 12.0998C534.888 12.0292 532.629 11.888 527.004 11.7468C513.565 11.4172 525.144 12.2646 532.087 12.0998Z" fill="#2fcec3"/>
<path d="M583.608 13.3C583.867 13.0411 578.43 12.7115 571.558 12.5468C538.254 11.7464 582.455 14.4063 583.608 13.3Z" fill="#2fcec3"/>
<path d="M808.092 17.7257C818.4 18.5025 809.739 16.9959 804.702 16.8076C798.254 16.5722 800.348 17.1372 808.092 17.7257Z" fill="#2fcec3"/>
<path d="M332.387 14.1004C332.528 13.9592 330.41 13.7944 327.609 13.7238C324.808 13.6532 322.549 13.8415 322.549 14.1475C322.549 14.6654 331.822 14.6418 332.387 14.124V14.1004Z" fill="#2fcec3"/>
<path d="M837.229 63.5801C829.415 62.5914 812.964 62.7797 812.493 61.3439C812.281 60.7083 813.152 60.4964 815.482 60.5435C816.023 60.5435 816.541 60.5435 816.965 60.4964C818.024 60.7554 821.036 60.9437 825.955 60.9672C826.355 60.9672 827.791 60.9672 828.191 60.9672C838.429 60.9672 840.477 60.0963 833.628 59.6961C832.545 59.5313 830.451 59.4607 827.085 59.5078C823.719 59.4607 821.601 59.5078 820.519 59.6961C819.577 59.7432 818.8 59.8138 818.188 59.8844C816.353 59.0606 801.619 59.3901 801.007 60.3317C800.607 60.9437 799.619 60.9201 796.771 60.2375C790.934 58.8487 779.378 57.6011 770.081 57.3893C741.768 56.7066 796.23 61.6969 797.901 61.9323C802.796 62.6856 811.316 63.8625 814.023 64.4981C816.047 64.9689 846.737 66.1458 848.432 64.8041C852.245 61.7676 844.572 64.5216 837.229 63.5801Z" fill="#2fcec3"/>
<path d="M252.671 16.266C252.224 15.7952 239.162 15.7716 237.891 16.2424C237.279 16.4543 236.902 16.7132 236.996 16.8309C237.396 17.2075 253.024 16.6661 252.671 16.2895V16.266Z" fill="#2fcec3"/>
<path d="M809.386 66.7578C809.386 66.287 802.09 64.451 799.948 64.3804C799.077 64.3804 798.842 64.5922 799.266 65.0159C800.042 65.8162 809.362 67.4169 809.386 66.7343V66.7578Z" fill="#2fcec3"/>
<path d="M263.474 51.2923C261.003 50.5861 243.257 51.9984 237.914 51.6689C236.455 51.5747 234.596 51.6689 233.819 51.9043C233.019 52.1397 232.501 52.6575 232.642 53.1048C232.901 53.9522 238.103 54.0934 249.541 53.5756C252.624 53.4343 254.695 53.6462 255.307 54.1876C255.896 54.7055 256.272 54.729 256.272 54.2817C256.296 53.1754 258.39 52.7046 259.779 53.5049C261.897 54.729 261.003 52.8459 263.333 52.9165C265.075 52.9635 265.145 51.8101 263.427 51.2923H263.474Z" fill="#2fcec3"/>
<path d="M266.51 52.7285C267.993 52.2106 269.664 53.0345 269.24 54.0702C268.982 54.7058 269.476 54.847 271.1 54.6587C272.512 54.4704 273.006 54.1644 272.465 53.8113C270.841 52.7756 279.832 51.5044 281.079 53.5524C281.408 54.0938 281.62 54.1408 281.644 53.6936C281.644 53.0345 283.268 52.7756 288.681 52.6343C289.293 52.6343 289.999 52.2812 290.329 51.8575C290.658 51.4338 290.705 51.9752 290.47 53.0345C290.211 54.1644 290.305 54.9647 290.729 54.9882C291.599 54.9882 291.505 51.5515 291.529 50.5864C272.465 50.916 267.24 51.1043 266.487 51.3632C265.145 51.8105 265.075 53.2228 266.51 52.752V52.7285Z" fill="#2fcec3"/>
<path d="M293.788 50.6097C292.917 50.8215 292.282 51.3629 292.423 51.7867C292.588 52.281 294.141 52.5164 296.612 52.4222C299.884 52.3045 300.566 52.4693 300.543 53.4109C300.496 55.0586 303.814 54.5408 302.873 54.117C301.578 53.5521 301.837 52.587 303.391 52.1162C304.191 51.8808 304.803 51.41 304.826 51.0334C304.826 50.3037 296.353 49.9741 293.812 50.6097H293.788Z" fill="#2fcec3"/>
<path d="M332.599 50.8926C330.127 50.3747 321.49 50.869 315.041 50.6101L310.828 50.4453L312.57 52.2814C314.382 54.1881 317.818 55.1532 317.559 53.6702C317.465 53.1759 317.865 52.7993 318.454 52.8228C319.019 52.8228 320.219 53.27 320.996 53.7643C322.172 54.4941 322.549 54.4941 322.808 53.8114C323.231 52.7522 325.138 52.7522 325.091 53.8114C325.091 54.3764 325.373 54.3528 326.126 53.7408C326.88 53.1288 327.185 53.1053 327.162 53.6702C327.138 54.6824 328.527 55.0119 328.574 53.1053C328.598 51.8106 328.739 51.787 330.245 52.7992C331.751 53.8114 331.987 53.8114 333.093 52.6109C334.223 51.3869 334.199 51.2692 332.528 50.9161L332.599 50.8926Z" fill="#2fcec3"/>
<path d="M338.6 50.8922C337.871 51.1276 337.777 51.4101 338.342 51.9985C338.812 52.4929 340.201 52.6106 342.013 52.3516C348.533 51.3865 340.53 50.2802 338.6 50.8922Z" fill="#2fcec3"/>
<path d="M115.269 60.0253C114.799 60.0724 114.563 60.4255 114.775 60.7786C115.316 61.7202 123.507 60.7786 125.343 60.8257C125.813 60.8257 126.213 60.4726 126.237 60.0489C126.237 59.3427 122.565 59.3192 115.269 60.0253Z" fill="#2fcec3"/>
<path d="M147.16 57.2716C143.818 57.6953 142.547 58.119 143.041 58.6369C144.336 60.0022 145.96 56.8008 145.913 58.4721C145.913 58.9664 146.407 59.1547 147.137 58.9429C147.819 58.731 150.126 58.4721 152.267 58.3544C160.552 57.9071 173.308 56.1653 172.391 57.6247C171.637 58.8252 175.615 58.6604 175.191 57.9307C174.697 57.0833 177.262 56.4948 181.146 56.5654C187.218 56.6596 193.714 55.9299 194.043 55.106C195.055 52.5402 148.619 57.0598 147.16 57.2481V57.2716Z" fill="#2fcec3"/>
<path d="M231.089 51.8104C230.689 52.0458 198.892 53.5523 197.456 53.8348C194.891 54.3526 195.62 55.5061 198.562 55.5767C200.022 55.6002 201.41 55.4825 201.646 55.2707C201.975 54.9646 213.178 54.4703 217.32 54.5645C218.85 54.6115 221.886 55.2471 222.239 55.6238C222.451 55.8592 223.275 55.8827 224.075 55.6944C225.158 55.4354 225.275 55.2 224.593 54.7293C223.934 54.282 223.91 54.1173 224.499 54.1173C224.969 54.1173 225.511 54.4468 225.723 54.8234C226.193 55.6473 230.241 55.8356 231.465 55.1059C232.689 54.3762 231.748 51.4102 231.089 51.8104Z" fill="#2fcec3"/>
<path d="M349.215 51.5749C346.861 52.3987 347.308 53.0107 350.062 52.7518C351.403 52.6341 352.533 52.7518 352.533 53.0107C352.533 53.6463 355.499 53.1284 355.169 52.0456C354.887 51.0805 351.451 50.7981 349.215 51.5749Z" fill="#2fcec3"/>
<path d="M437.309 52.6109C428.742 52.6109 418.763 52.4696 418.763 52.4696C417.092 52.399 415.751 52.7051 415.727 53.1288C415.68 54.6117 440.204 53.2229 438.769 54.8471C438.18 55.5297 439.545 55.7416 445.359 55.8828C449.43 55.977 452.89 55.8828 453.078 55.671C453.29 55.4591 453.314 54.7058 453.149 53.9761C452.867 52.7286 452.019 52.658 437.286 52.6344L437.309 52.6109Z" fill="#2fcec3"/>
<path d="M465.834 52.2103C464.964 52.5163 463.787 52.6105 463.245 52.3987C462.704 52.1868 461.598 52.7047 460.751 53.5521C459.903 54.3995 459.197 55.1998 459.197 55.3175C459.197 55.4352 460.186 55.5764 461.386 55.6C463.269 55.6471 463.457 55.4823 462.751 54.5643C462.069 53.6698 462.116 53.4815 463.034 53.505C463.646 53.505 464.163 54.0464 464.14 54.6349C464.14 55.4823 464.681 55.6941 466.682 55.5294C468.423 55.3881 469.318 54.9409 469.459 54.117C469.741 52.4928 467.811 51.5042 465.787 52.2103H465.834Z" fill="#2fcec3"/>
<path d="M478.45 57.4128C474.355 57.3186 474.119 58.7074 478.85 58.8251C483.792 58.9428 482.38 57.5069 478.45 57.4128Z" fill="#2fcec3"/>
<path d="M502.55 58.072C496.878 57.9072 492.194 58.072 492.171 58.4015C492.171 59.1312 504.457 59.4373 509.352 58.8252C511.917 58.4957 510.035 58.2838 502.55 58.0955V58.072Z" fill="#2fcec3"/>
<path d="M429.166 54.8235C425.024 54.7294 422.035 54.9413 422.035 55.3179C422.035 56.0476 435.05 56.1653 435.803 55.4591C436.062 55.2002 433.096 54.9177 429.166 54.8235Z" fill="#2fcec3"/>
<path d="M519.332 58.2601C518.626 57.8364 517.002 57.6716 515.66 57.8599C512.506 58.3543 511.941 58.8957 516.907 58.9663C519.849 59.0134 520.344 58.8721 519.332 58.2601Z" fill="#2fcec3"/>
<path d="M365.054 51.5983C364.089 52.1632 364.395 53.9051 365.407 53.5285C365.949 53.3402 366.631 53.5285 366.867 53.9522C367.126 54.3994 367.643 54.5407 368.138 54.2582C369.62 53.3637 370.774 53.4814 370.75 54.4936C370.726 55.8588 373.786 55.7647 373.245 54.8467C372.68 53.8816 374.327 54.3994 376.022 53.7639C377.458 53.246 377.552 54.729 375.857 55.1291C374.163 55.5528 378.446 55.953 378.564 54.7996C378.634 54.1405 378.729 54.1405 378.988 54.7996C379.341 55.7412 384.095 56.1649 384.118 55.2468C384.118 54.9173 383.13 54.7525 381.93 54.8938C380.329 55.0821 379.858 54.8938 380.282 54.3288C380.588 53.8816 381.271 53.6697 381.788 53.9051C383.153 54.47 386.119 52.8459 386.613 53.7168C386.801 54.0464 389.108 54.2582 391.72 54.164C395.392 54.0463 395.886 54.117 393.862 54.5171C389.955 55.2704 389.79 55.9295 393.486 56.0236C395.957 56.0943 396.875 55.7882 397.463 54.7525C397.887 54.0228 398.24 53.2225 398.24 53.0342C398.24 52.7046 372.868 51.9043 369.479 51.5983C367.337 51.41 365.407 51.41 365.101 51.5983H365.054Z" fill="#2fcec3"/>
<path d="M412.62 53.0815C410.808 52.3283 407.254 52.7049 402.9 52.8226C397.816 52.9403 400.829 54.282 406.148 53.976C413.632 53.5288 414.503 53.8819 412.62 53.1051V53.0815Z" fill="#2fcec3"/>
<path d="M2913.13 52.4692C2913.13 52.4692 2903.13 52.587 2894.58 52.6105C2879.87 52.6576 2879.03 52.7282 2878.72 53.9522C2878.56 54.6819 2878.58 55.4352 2878.79 55.647C2879 55.8589 2882.44 55.953 2886.51 55.8589C2892.33 55.7176 2893.71 55.5058 2893.1 54.8231C2891.64 53.1989 2916.17 54.5878 2916.14 53.1048C2916.14 52.6811 2914.78 52.3751 2913.11 52.4457L2913.13 52.4692Z" fill="#2fcec3"/>
<path d="M2868.62 52.3987C2868.11 52.6105 2866.93 52.5399 2866.04 52.2103C2864.01 51.5042 2862.08 52.4928 2862.36 54.117C2862.5 54.9174 2863.4 55.3881 2865.14 55.5294C2867.14 55.6941 2867.71 55.4823 2867.68 54.6349C2867.68 54.0464 2868.2 53.5285 2868.79 53.505C2869.73 53.505 2869.78 53.6698 2869.07 54.5643C2868.37 55.4823 2868.55 55.6471 2870.44 55.6C2871.64 55.5764 2872.65 55.4352 2872.63 55.3175C2872.63 55.1998 2871.92 54.3995 2871.07 53.5521C2870.22 52.7047 2869.09 52.1868 2868.58 52.3987H2868.62Z" fill="#2fcec3"/>
<path d="M2928.99 52.8226C2924.64 52.7049 2921.09 52.3283 2919.27 53.0815C2917.39 53.8583 2918.26 53.5052 2925.75 53.9525C2931.06 54.282 2934.08 52.9403 2928.99 52.799V52.8226Z" fill="#2fcec3"/>
<path d="M2829.34 58.0717C2821.86 58.2836 2819.98 58.4719 2822.54 58.8014C2827.44 59.4134 2839.75 59.131 2839.72 58.3777C2839.72 58.0482 2835.04 57.907 2829.34 58.0482V58.0717Z" fill="#2fcec3"/>
<path d="M2859.21 54.1879C2858.41 53.9996 2857.94 53.4817 2858.17 53.0815C2858.41 52.6814 2858.36 52.3047 2858.06 52.2812C2850.41 51.575 2825.72 51.6221 2824.49 51.7162C2819.22 52.187 2817.81 52.2106 2817.81 51.9046C2817.81 51.2925 2805.52 51.5279 2805.17 52.1399C2804.82 52.7519 2801.59 53.1757 2797.78 53.1286C2796.18 53.1286 2795.95 52.9403 2796.72 52.3989C2797.48 51.881 2797.08 51.7163 2795.19 51.7633C2793.66 51.8104 2792.51 52.187 2792.3 52.7755C2792.02 53.5523 2791.38 53.5994 2788.89 53.0344C2787.21 52.6578 2785.43 52.0929 2784.93 51.7869C2784.46 51.4808 2784.06 51.5279 2784.06 51.8339C2784.08 52.8461 2774.27 53.0815 2773.23 52.0929C2771.96 50.8924 2764.27 51.8104 2764.67 52.4224C2765.09 53.0815 2757.21 53.2698 2756.66 52.6107C2756.45 52.3518 2754.83 52.0222 2752.95 51.8575C2750.4 51.6456 2749.46 51.8339 2749.02 52.6578C2747.96 54.6586 2745.34 51.7398 2743.08 53.0815C2741.84 53.8112 2738.87 53.2934 2739.39 52.4224C2739.55 52.1164 2737.91 51.9046 2735.69 51.9516C2731.95 51.9987 2731.88 52.0458 2734.49 52.493C2736.38 52.8069 2736.02 53.0423 2733.43 53.1992C2725.15 53.6935 2693.66 54.1643 2691.52 53.8112C2688.76 53.364 2685.49 54.1643 2686.13 55.1294C2686.36 55.506 2687.4 55.7179 2688.46 55.6473C2690.34 55.506 2859.23 56.7772 2860.22 55.1765C2860.43 54.847 2859.94 54.3997 2859.14 54.1879H2859.21Z" fill="#2fcec3"/>
<path d="M2853.44 57.4128C2849.51 57.5069 2848.1 58.9428 2853.04 58.8251C2857.77 58.7074 2857.54 57.3186 2853.44 57.4128Z" fill="#2fcec3"/>
<path d="M2902.73 54.8232C2898.77 54.9173 2895.83 55.1998 2896.09 55.4588C2896.84 56.1885 2909.88 56.0472 2909.86 55.3175C2909.86 54.9174 2906.87 54.729 2902.73 54.8232Z" fill="#2fcec3"/>
<path d="M3134.41 53.8348C3133 53.5523 3101.18 52.0458 3100.78 51.8104C3100.12 51.4102 3099.18 54.3762 3100.4 55.1059C3101.63 55.8356 3105.68 55.6473 3106.15 54.8234C3106.36 54.4468 3106.9 54.1408 3107.37 54.1173C3107.96 54.1173 3107.94 54.282 3107.28 54.7293C3106.59 55.2 3106.74 55.4354 3107.8 55.6944C3108.6 55.8827 3109.42 55.8356 3109.63 55.6238C3109.98 55.2471 3113.02 54.6115 3114.55 54.5645C3118.69 54.4703 3129.9 54.9646 3130.22 55.2707C3130.46 55.4825 3131.85 55.6238 3133.31 55.5767C3136.25 55.5061 3136.98 54.3526 3134.41 53.8348Z" fill="#2fcec3"/>
<path d="M2816.23 57.8601C2814.89 57.6483 2813.27 57.8131 2812.56 58.2603C2811.55 58.8723 2812.04 59.0136 2814.99 58.9665C2819.95 58.8959 2819.39 58.3545 2816.23 57.8601Z" fill="#2fcec3"/>
<path d="M3065.41 51.3398C3064.65 51.0809 3059.43 50.9161 3040.36 50.563C3040.36 51.5046 3040.32 54.9884 3041.16 54.9648C3041.56 54.9648 3041.68 54.141 3041.42 53.0111C3041.16 51.9518 3041.23 51.4104 3041.56 51.8341C3041.89 52.2578 3042.62 52.6109 3043.21 52.6109C3048.62 52.7522 3050.25 52.9875 3050.25 53.6702C3050.25 54.1174 3050.48 54.0704 3050.81 53.5289C3052.06 51.5046 3061.03 52.7522 3059.43 53.7879C3058.89 54.141 3059.38 54.447 3060.79 54.6353C3062.39 54.8471 3062.91 54.6824 3062.65 54.0468C3062.23 53.0346 3063.9 52.2107 3065.38 52.7051C3066.82 53.1994 3066.75 51.787 3065.41 51.3163V51.3398Z" fill="#2fcec3"/>
<path d="M2999.27 50.8922C2997.6 51.2453 2997.58 51.3394 2998.71 52.587C2999.81 53.7875 3000.05 53.811 3001.55 52.7753C3003.06 51.7631 3003.2 51.7867 3003.22 53.0813C3003.27 55.0115 3004.66 54.682 3004.64 53.6462C3004.64 53.0813 3004.92 53.1049 3005.67 53.7169C3006.43 54.3289 3006.73 54.3524 3006.71 53.7875C3006.68 52.7282 3008.59 52.7282 3008.99 53.7875C3009.25 54.4701 3009.63 54.4701 3010.8 53.7404C3011.6 53.2461 3012.78 52.8224 3013.35 52.7988C3013.96 52.7988 3014.33 53.1519 3014.24 53.6462C3013.96 55.1292 3017.42 54.1641 3019.23 52.2574L3020.97 50.4214L3016.76 50.5862C3010.31 50.8451 3001.67 50.3508 2999.2 50.8686L2999.27 50.8922Z" fill="#2fcec3"/>
<path d="M2976.72 52.0456C2976.39 53.152 2979.38 53.6463 2979.36 53.0107C2979.36 52.7283 2980.49 52.6106 2981.83 52.7518C2984.58 53.0107 2985.03 52.3752 2982.68 51.5749C2980.44 50.7981 2977.03 51.0805 2976.72 52.0456Z" fill="#2fcec3"/>
<path d="M2966.82 51.5984C2966.51 51.4101 2964.58 51.4336 2962.44 51.5984C2959.05 51.8808 2933.68 52.6812 2933.68 53.0343C2933.68 53.2226 2934.03 54.0229 2934.45 54.7526C2935.04 55.7883 2935.96 56.0944 2938.43 56.0238C2942.13 55.9296 2941.96 55.2705 2938.05 54.5172C2936.03 54.1171 2936.5 54.0464 2940.2 54.1641C2942.81 54.2583 2945.11 54.0465 2945.3 53.7169C2945.8 52.846 2948.74 54.4701 2950.13 53.9052C2950.67 53.6934 2951.33 53.9052 2951.63 54.3289C2952.03 54.9174 2951.59 55.0822 2949.99 54.8939C2948.79 54.7526 2947.77 54.9174 2947.8 55.247C2947.8 56.165 2952.58 55.7413 2952.93 54.7997C2953.19 54.1171 2953.28 54.1171 2953.35 54.7997C2953.47 55.9531 2957.78 55.553 2956.06 55.1293C2954.36 54.7055 2954.46 53.2226 2955.89 53.764C2957.59 54.376 2959.24 53.8817 2958.67 54.8468C2958.13 55.7413 2961.21 55.859 2961.17 54.4937C2961.14 53.4815 2962.27 53.3638 2963.78 54.2583C2964.25 54.5408 2964.79 54.4231 2965.05 53.9523C2965.29 53.5286 2965.97 53.3403 2966.51 53.5286C2967.52 53.8817 2967.83 52.1633 2966.86 51.5984H2966.82Z" fill="#2fcec3"/>
<path d="M3038.1 50.61C3035.54 49.9745 3027.07 50.3275 3027.09 51.0337C3027.09 51.4103 3027.7 51.8811 3028.53 52.1165C3030.08 52.5638 3030.34 53.5524 3029.04 54.1174C3028.1 54.5411 3031.4 55.0589 3031.37 53.4112C3031.37 52.4696 3032.01 52.3049 3035.3 52.4226C3037.78 52.5167 3039.35 52.2813 3039.49 51.787C3039.63 51.3633 3039 50.8219 3038.13 50.61H3038.1Z" fill="#2fcec3"/>
<path d="M3098.05 51.9043C3097.27 51.6924 3095.44 51.5747 3093.96 51.6689C3088.61 51.9984 3070.87 50.5861 3068.4 51.2923C3066.68 51.7866 3066.77 52.94 3068.51 52.9165C3070.87 52.8694 3069.95 54.729 3072.07 53.5049C3073.46 52.7046 3075.53 53.1754 3075.57 54.2817C3075.57 54.729 3075.95 54.7055 3076.54 54.1876C3077.15 53.6697 3079.22 53.4343 3082.31 53.5756C3093.74 54.0934 3098.97 53.9522 3099.2 53.1048C3099.35 52.634 3098.85 52.1162 3098.03 51.9043H3098.05Z" fill="#2fcec3"/>
<path d="M2506.71 67.2284C2498.22 67.4402 2490 67.4167 2488.45 67.1578C2486.24 66.7812 2485.81 66.8753 2486.45 67.5344C2488.73 69.8883 2519.07 68.6408 2520.79 67.605C2521.8 66.993 2518.34 66.8989 2506.69 67.2049L2506.71 67.2284Z" fill="#2fcec3"/>
<path d="M2760.34 12.5468C2753.44 12.7115 2748.03 13.0646 2748.29 13.3C2749.44 14.4063 2793.64 11.7464 2760.34 12.5468Z" fill="#2fcec3"/>
<path d="M3094.87 16.8077C3094.87 16.8077 3094.59 16.4546 3093.98 16.2192C3092.71 15.7485 3079.65 15.7955 3079.2 16.2428C3078.82 16.6429 3094.47 17.1844 3094.85 16.7842L3094.87 16.8077Z" fill="#2fcec3"/>
<path d="M2531.92 64.3804C2529.78 64.4274 2522.46 66.2635 2522.48 66.7578C2522.48 67.4169 2531.83 65.8398 2532.6 65.0395C2533.03 64.5922 2532.79 64.3804 2531.92 64.4039V64.3804Z" fill="#2fcec3"/>
<path d="M3009.34 14.124C3009.34 13.818 3007.09 13.6533 3004.28 13.7003C3001.48 13.7709 2999.37 13.9357 2999.51 14.0769C3000.05 14.5948 3009.34 14.6184 3009.34 14.1005V14.124Z" fill="#2fcec3"/>
<path d="M2806.65 57.8835C2801.19 58.0483 2801.66 58.731 2807.08 58.9663C2812.33 59.2017 2812.28 57.6952 2806.65 57.8835Z" fill="#2fcec3"/>
<path d="M2799.8 12.0995C2806.72 12.2408 2818.3 11.4169 2804.89 11.7464C2799.26 11.8877 2797 12.0289 2799.8 12.0995Z" fill="#2fcec3"/>
<path d="M2713.95 58.6367C2716.3 59.5312 2728.16 58.7073 2725.81 58.2601C2724.3 57.9776 2711 57.5304 2713.95 58.6367Z" fill="#2fcec3"/>
<path d="M2786.53 57.6481C2775.33 57.86 2731.69 57.7893 2732.47 58.5661C2733.27 59.3665 2738.99 59.1546 2767.23 59.0604C2784.88 59.0134 2792.7 58.7544 2792.7 58.2601C2792.7 57.8129 2790.34 57.5775 2786.53 57.6481Z" fill="#2fcec3"/>
<path d="M2512.29 60.1668C2512.48 59.5783 2509.87 59.4135 2502.85 59.5312C2490.9 59.7431 2491.58 60.9436 2503.7 60.9671C2509.59 60.9671 2512.13 60.7317 2512.32 60.1668H2512.29Z" fill="#2fcec3"/>
<path d="M2993.29 50.8922C2991.36 50.2802 2983.36 51.3865 2989.88 52.3516C2991.69 52.6106 2993.08 52.4929 2993.55 51.9985C2994.09 51.4101 2994.02 51.1276 2993.29 50.8922Z" fill="#2fcec3"/>
<path d="M3216.62 60.0257C3209.33 59.343 3205.63 59.343 3205.66 60.0492C3205.66 60.4729 3206.08 60.8495 3206.55 60.826C3208.39 60.7789 3216.58 61.7205 3217.12 60.779C3217.33 60.4023 3217.12 60.0728 3216.62 60.0257Z" fill="#2fcec3"/>
<path d="M3184.73 57.2712C3183.27 57.0829 3136.84 52.5398 3137.85 55.1291C3138.18 55.953 3144.65 56.6827 3150.75 56.5886C3154.63 56.5179 3157.2 57.1064 3156.7 57.9538C3156.28 58.6836 3160.26 58.8484 3159.5 57.6479C3158.59 56.1884 3171.32 57.9303 3179.63 58.3776C3181.77 58.4953 3184.07 58.7542 3184.76 58.966C3185.49 59.1779 3186 58.9896 3185.98 58.4953C3185.93 56.824 3187.56 60.0253 3188.85 58.66C3189.35 58.1422 3188.1 57.7184 3184.73 57.2947V57.2712Z" fill="#2fcec3"/>
<path d="M3333.88 32.8378C3332.89 32.6259 3329.64 32.6965 3324.58 33.0732C3318.06 33.5675 3314.6 33.7323 3313.14 33.9912C3304.2 33.4263 3304.27 33.2144 3304.41 35.0975C3304.53 36.5099 3304.27 36.6982 3302.67 36.4157C3301.82 36.2745 3301.33 35.9685 3301.05 35.5212C3302.29 35.4271 3303.38 35.0505 3303.35 34.6268C3303.35 34.462 3302.44 34.3443 3300.79 34.2737C3300.67 32.6259 3299.54 32.3905 3299.23 34.1324C3299.23 34.1795 3299.23 34.1795 3299.21 34.2266C3296.62 34.1795 3292.93 34.1795 3288.38 34.2737C3288.38 34.2737 3272.8 34.5561 3272.03 34.5091C3268.47 34.3207 3262.61 34.9327 3262.61 35.5212C3262.61 36.2745 3284.83 35.7566 3294.86 35.5448C3294.86 35.5683 3294.81 35.5919 3294.81 35.6154C3294.81 36.298 3292.93 36.6511 3291.77 37.0513C3290.57 37.0278 3289.7 36.9806 3289.26 36.91C3288.31 36.7688 3287.11 36.9807 3286.67 37.3338C3286.1 37.8045 3285.8 37.7339 3285.8 37.1219C3285.8 36.4864 3285.51 36.4393 3284.85 37.0277C3283.79 37.9458 3275.32 38.1105 3275.3 37.216C3275.3 36.91 3274.69 36.9571 3274.03 37.3573C3273.23 37.8281 3272.4 37.8516 3271.74 37.475C3270.52 36.7453 3267.27 36.6747 3266.59 37.3808C3266 37.9929 3259.79 38.1105 3257.83 37.5456C3255.6 36.8865 3256.71 35.5448 3259.13 35.9685C3260.28 36.1803 3261.32 36.0391 3261.53 35.6389C3261.77 35.2152 3259.91 34.9563 3256.78 34.9563C3246.63 34.9563 3245.81 34.4384 3244.33 34.5797C3243.17 34.6738 3243.12 36.1333 3249.43 36.0627C3251.97 36.0391 3254.47 36.298 3254.99 36.6511C3255.98 37.3338 3244.89 37.0748 3237.71 36.2745C3233.05 35.7566 3233 34.8857 3231.26 32.5318L3230.53 36.0391L3229.12 34.462C3227.54 32.6965 3225.05 32.4141 3225.73 34.0853C3226.41 35.7566 3224.56 34.2972 3219.38 34.1795C3214.04 34.0618 3213.35 33.9676 3213.33 33.2379C3213.33 32.8378 3214.98 32.673 3217.59 32.8142C3223.12 33.1438 3222.46 31.9668 3216.81 31.4725C3214.46 31.2606 3212.36 30.7899 3212.1 30.4132C3211.35 29.3304 3210.01 30.884 3209.3 29.8012C3209.05 29.4011 3208.57 29.2833 3208.2 29.5187C3207.85 29.7541 3205.87 29.66 3203.84 29.3304C3198.2 28.3889 3188.03 28.3889 3187.23 27.9652C3186.97 27.8239 3184.07 27.565 3180.85 27.3767C3172.92 26.9294 3173.11 25.7525 3171.13 26.3174C3170.33 26.5292 3168 26.3645 3165.9 25.9408C3160.56 24.8345 3150.02 25.4229 3148.04 24.4578C3145.5 23.2338 3131.31 24.293 3127.89 22.5747C3125.73 21.4919 3123.4 23.1632 3122.13 22.1745C3121.07 21.3271 3119.28 21.7273 3114.81 21.3742C3113.14 21.2565 3111.63 21.4213 3111.44 21.7508C3111.25 22.0804 3110.41 22.0333 3109.61 21.6331C3107.56 20.6209 3095.23 20.5738 3088.28 20.362C3080.49 20.1266 3075.79 20.2914 3075.24 19.6087C3075.03 19.3263 3073.97 19.5616 3072.99 20.1031C3071.41 20.974 3071.06 20.974 3070.51 20.1031C3070.04 19.3263 3069.2 19.2086 3066.98 19.6087C3065.19 19.9383 3064.09 20.5032 3064.11 21.1153C3064.16 22.6688 3067.71 21.4683 3066.49 22.763C3065.64 23.6575 3059.95 23.2573 3059.9 21.586C3059.85 20.1266 3056.67 18.6672 3055.71 19.6794C3055.19 20.2208 3054.72 20.2208 3054.04 19.7029C3052.96 18.879 3052.81 18.879 3044.51 18.7613C3035.4 18.6436 3038.51 17.8433 3034.34 18.5495C3032.67 18.832 3030.53 18.7849 3029.51 18.4553C3027.23 17.6785 3022.36 18.6672 3022.78 19.7971C3022.95 20.2208 3024.29 20.668 3025.68 20.7622C3029.35 20.9976 3028.93 22.0098 3025.11 22.0804C3022.78 22.1274 3021.98 21.9156 3022.22 21.2565C3022.57 20.2443 3020.9 17.8668 3019.23 18.8555C3017.46 19.8912 3015.93 17.9846 3011.91 18.8084C3010.45 19.1144 3009.27 19.0438 3009.27 18.6672C3009.27 17.8197 3005.04 17.655 3005.04 18.8084C3005.04 19.3734 3004.83 19.3498 3004.43 18.7613C3004 18.1258 3003.34 18.0787 3002.14 18.5495C3001.22 18.9261 2999.79 18.9967 2998.97 18.7142C2997.55 18.2199 2985.06 18.7142 2980.87 19.444C2979.67 19.6558 2977.88 19.3969 2976.77 18.8555C2975.69 18.3376 2974.82 18.1964 2974.82 18.573C2974.82 18.9261 2974.09 19.0674 2973.22 18.879C2970.53 18.2906 2962.51 18.3612 2961.78 18.9967C2961 19.6794 2941.87 19.3969 2944.95 18.573C2946.74 18.1022 2946.57 18.0316 2943.92 18.1729C2942.17 18.2435 2940.55 18.6437 2940.27 19.0674C2939.91 19.5852 2939.75 19.5852 2939.73 19.0674C2939.7 17.6785 2926.52 19.8912 2928.48 18.4083C2930.48 16.9018 2917.41 19.3734 2919.34 17.9139C2920.73 16.8782 2919.2 17.3019 2915.48 17.2077C2912.99 17.1371 2904 19.4911 2892.7 17.8904C2886.86 17.0665 2881.64 17.1842 2881.05 18.1729C2880.79 18.5966 2880.27 18.6672 2879.8 18.2906C2878.56 17.349 2872.67 16.6899 2866.13 16.7841C2861.85 16.8311 2860.13 16.5957 2859.66 15.8425C2858.29 13.7239 2856.48 17.5373 2854.67 15.4894C2854.03 14.7597 2853.63 14.7126 2853.26 15.3246C2852.62 16.3839 2842.1 16.737 2840.88 15.1834C2840 14.077 2838.85 13.7946 2839.53 14.8774C2839.79 15.3011 2839.6 15.6306 2839.06 15.6777C2832.66 16.1956 2792.49 15.7718 2794.3 15.1834C2795.88 14.689 2795.83 14.642 2793.69 14.6185C2792.27 14.6185 2791.52 14.8774 2791.8 15.3011C2792.44 16.2662 2783.94 16.3603 2783.38 15.5129C2783.12 15.1127 2782.44 14.8538 2781.75 14.8774C2780.81 14.9245 2780.86 15.0422 2782.01 15.5365C2783.21 16.0308 2783.02 16.172 2780.95 16.3132C2777.28 16.5957 2775.09 16.3603 2774.32 15.6541C2773.35 14.7832 2772.27 14.8303 2772.86 15.7012C2773.52 16.7134 2766.43 16.7605 2765.89 15.9366C2765.33 15.0421 2762.67 15.4423 2763.04 16.0308C2763.42 16.6193 2751.84 17.3019 2752.55 16.1485C2752.83 15.6777 2752.36 15.7483 2751.37 16.3132C2749.13 17.6079 2740.26 18.1493 2740.21 17.0194C2740.21 16.3603 2740.05 16.3603 2739.62 17.0194C2738.94 18.1258 2733.58 17.8198 2732.49 17.8904C2727.22 18.2435 2721.93 18.4318 2716.63 18.6436C2703.73 19.138 2690.72 19.0438 2677.84 20.1031C2670.17 20.7386 2662.07 19.5381 2654.17 20.5268C2645.62 21.586 2637.83 24.9992 2629.1 24.4107C2622.18 23.9399 2615.29 22.3628 2608.41 21.3742C2601.12 20.2914 2593.8 19.3734 2586.48 18.5495C2571.98 16.9488 2557.41 15.8425 2542.82 15.2775C2528.23 14.7126 2513.59 14.642 2498.99 15.0892C2492.73 15.2775 2486.36 15.0892 2480.31 16.8076C2477.62 17.5608 2475.65 17.09 2472.94 17.0194C2470.82 16.9723 2469.36 17.5608 2467.17 17.0194C2465.34 16.5722 2463.46 16.2897 2461.6 16.0308C2460.87 15.9366 2453.05 14.6185 2452.86 15.4659C2452.75 16.0073 2449.15 16.1014 2447.92 15.6071C2445.26 14.5478 2424.36 13.8652 2412.69 12.0762C2401.3 10.3108 2242.55 2.66053 2224.73 1.88374C2209.58 1.2011 2204.99 1.20108 2204.14 1.86018C2203.39 2.44866 2202.68 2.49577 2201.9 2.00144C2201.27 1.62482 2197.81 1.154 2194.28 0.942152C2188.79 0.636143 2187.8 0.753856 2187.78 1.69542C2187.73 3.20193 2186.16 2.943 2186.7 2.09559C2186.93 1.71896 2186.32 1.2011 2185.33 0.918626C2183.64 0.447842 2139.53 -0.11709 2122.54 0.118302C2064.34 0.942174 1913.28 8.49825 1890.55 8.68656C1840.89 9.11027 1572.42 9.11027 1522.78 8.68656C1500.04 8.49825 1348.99 0.942174 1290.79 0.118302C1273.79 -0.11709 1229.71 0.424303 1227.99 0.918626C1227 1.2011 1226.39 1.71896 1226.63 2.09559C1227.17 2.943 1225.59 3.17839 1225.55 1.69542C1225.55 0.753856 1224.51 0.636143 1219.05 0.942152C1215.52 1.13047 1212.04 1.62482 1211.42 2.00144C1210.62 2.47223 1209.92 2.42512 1209.19 1.86018C1208.34 1.20108 1203.75 1.2011 1188.59 1.88374C1170.78 2.68407 1012.03 10.3108 1000.64 12.0762C988.964 13.8887 968.064 14.5478 965.405 15.6071C964.157 16.1014 960.462 15.9837 960.462 15.4423C960.462 14.7597 946.835 16.4545 945.258 17.349C944.081 18.0081 943.493 18.0081 942.646 17.349C942.034 16.8782 941.304 16.6663 940.951 16.9017C940.292 17.3019 939.092 17.2784 938.339 17.3961C936.291 17.6785 934.267 17.9139 932.219 18.1729C927.747 18.6907 923.064 18.832 918.663 19.7971C915.768 20.4326 913.273 22.0804 910.402 22.7395C906 23.7281 901.152 22.5511 896.68 22.4334C885.901 22.1745 875.145 21.7508 864.366 21.7979C858.999 21.8214 853.61 21.9156 848.244 22.0804C845.561 22.151 842.877 22.2687 840.194 22.3864C837.747 22.4805 833.11 22.0333 831.133 23.6575C830.662 24.0577 829.65 24.2224 828.85 24.0341C828.05 23.8458 827.414 23.9635 827.461 24.2931C827.461 24.4814 827.273 24.552 826.944 24.599C826.614 24.5755 826.426 24.4814 826.426 24.2931C826.449 23.9635 825.838 23.8458 825.037 24.0341C824.237 24.2224 823.225 24.0341 822.731 23.6339C821.601 22.6924 818.33 22.763 814.893 22.3157C811.198 21.8214 804.702 22.0097 804.726 20.9269C804.726 20.5268 805.079 20.3855 805.432 20.6209C805.809 20.8563 806.703 20.7622 807.385 20.4091C808.303 19.9147 807.197 19.7029 803.126 19.5617C798.254 19.4204 797.571 19.5617 797.218 20.7622C796.488 23.2338 796.135 20.1031 793.358 20.0324C792.158 20.0089 792.064 20.1737 792.793 21.0446C793.547 21.9627 793.193 22.0804 790.063 22.0098C787.38 21.9391 786.462 21.6567 786.486 20.9269C786.509 19.8677 783.92 18.6436 783.167 19.3733C782.908 19.6087 783.167 20.1266 783.685 20.4562C786.297 22.1039 778.484 21.539 777.33 20.974C777.142 20.8799 777.778 20.5974 778.79 20.2914C780.39 19.8206 780.296 19.7735 778.107 19.7971C776.765 19.7971 775.306 20.2679 774.906 20.7622C772.6 23.681 724.304 21.3742 720.68 20.8092C718.938 20.5268 717.526 20.6445 717.267 21.0682C716.538 22.2451 712.113 20.3149 712.066 21.586C712.066 22.0333 711.713 22.151 711.265 21.845C710.136 21.1152 657.345 19.4204 657.322 20.1031C657.322 20.4091 656.31 20.4797 655.039 20.2914C650.214 19.5381 592.857 18.5259 591.939 17.0665C591.516 16.3839 591.374 16.3839 591.374 17.0665C591.327 18.2199 582.478 17.655 580.218 16.3603C579.23 15.7954 578.759 15.7248 579.065 16.1956C579.771 17.349 568.192 16.6663 568.568 16.0779C568.945 15.4658 566.309 15.0657 565.72 15.9837C565.203 16.8076 558.095 16.7605 558.754 15.7483C559.342 14.8538 558.26 14.8303 557.295 15.7012C556.518 16.4074 554.329 16.6193 550.657 16.3603C548.586 16.1956 548.422 16.0779 549.598 15.5835C550.752 15.0892 550.799 14.9715 549.857 14.9244C549.198 14.9009 548.492 15.1598 548.233 15.56C547.668 16.431 539.172 16.3368 539.807 15.3482C540.09 14.9245 539.313 14.6655 537.925 14.6655C535.783 14.6655 535.736 14.7126 537.313 15.2305C539.125 15.7954 498.973 16.2426 492.548 15.7248C492.006 15.6777 491.818 15.3481 492.077 14.9244C492.783 13.8416 491.606 14.1006 490.735 15.2305C489.535 16.784 479.015 16.4309 478.356 15.3717C477.979 14.7597 477.579 14.8068 476.943 15.5365C475.131 17.5844 473.319 13.771 471.954 15.8896C471.46 16.6428 469.765 16.9017 465.482 16.8311C458.939 16.7605 453.055 17.396 451.807 18.3376C451.337 18.6907 450.819 18.6436 450.56 18.2199C449.995 17.2548 444.77 17.1136 438.91 17.9374C427.589 19.5381 418.598 17.1842 416.127 17.2548C412.408 17.349 410.879 16.9253 412.267 17.961C414.197 19.3969 401.135 16.9488 403.135 18.4553C405.089 19.9383 391.909 17.7256 391.885 19.1144C391.885 19.6558 391.72 19.6558 391.344 19.1144C391.061 18.6907 389.414 18.2906 387.696 18.2199C385.013 18.1022 384.872 18.1493 386.66 18.6201C389.743 19.4204 370.609 19.7264 369.832 19.0438C369.103 18.4082 361.077 18.3376 358.394 18.9261C357.523 19.1144 356.793 18.9732 356.793 18.6201C356.793 18.2435 355.923 18.3847 354.84 18.9026C353.734 19.444 351.945 19.7029 350.745 19.491C346.555 18.7613 334.058 18.2435 332.646 18.7613C331.822 19.0438 330.41 18.9732 329.468 18.5965C328.268 18.1258 327.609 18.1729 327.185 18.8084C326.785 19.3969 326.597 19.4204 326.573 18.8555C326.573 17.7021 322.361 17.8904 322.337 18.7142C322.337 19.0909 321.16 19.1379 319.701 18.8555C315.676 18.0316 314.147 19.9618 312.381 18.9026C310.71 17.9139 309.039 20.2914 309.392 21.3036C309.628 21.9627 308.827 22.198 306.497 22.1274C302.685 22.0333 302.261 21.0211 305.933 20.8092C307.345 20.7151 308.686 20.2914 308.827 19.8441C309.251 18.6907 304.403 17.7256 302.096 18.5024C301.084 18.832 298.942 18.879 297.271 18.5965C293.106 17.8904 296.212 18.7143 287.104 18.8084C278.819 18.9026 278.655 18.9261 277.596 19.75C276.913 20.2678 276.442 20.2679 275.924 19.7264C274.96 18.7143 271.782 20.1737 271.735 21.6331C271.688 23.3044 265.992 23.7046 265.145 22.8101C263.921 21.5154 267.499 22.7159 267.522 21.1623C267.522 20.5503 266.44 19.9854 264.651 19.6558C262.462 19.2557 261.615 19.3733 261.12 20.1501C260.579 21.0211 260.226 21.0211 258.649 20.1501C257.661 19.6087 256.602 19.3734 256.39 19.6558C255.848 20.3385 251.141 20.1972 243.351 20.4091C236.384 20.6209 224.052 20.668 222.028 21.6802C221.204 22.0804 220.38 22.1274 220.192 21.7979C220.004 21.4683 218.497 21.28 216.826 21.4213C212.378 21.7508 210.589 21.3742 209.507 22.2216C208.236 23.2338 205.906 21.539 203.74 22.6218C200.328 24.3401 186.136 23.2809 183.594 24.5049C181.617 25.47 171.073 24.8815 165.73 25.9878C163.635 26.4116 161.305 26.5763 160.505 26.3645C158.528 25.8231 158.716 27 150.785 27.4237C147.56 27.6121 144.666 27.871 144.407 28.0122C143.606 28.4359 133.439 28.4359 127.79 29.3775C125.766 29.707 123.789 29.8012 123.436 29.5658C123.06 29.3304 122.589 29.4481 122.33 29.8483C121.624 30.9311 120.282 29.3775 119.529 30.4603C119.27 30.8369 117.176 31.3077 114.822 31.5196C109.197 32.0139 108.515 33.1909 114.046 32.8613C116.658 32.6965 118.329 32.8613 118.305 33.285C118.305 33.9912 117.623 34.1089 112.257 34.2266C107.079 34.3443 105.22 35.8037 105.902 34.1324C106.585 32.4611 104.09 32.7436 102.513 34.5091L101.101 36.0862L100.371 32.5788C98.6296 34.9327 98.5825 35.8037 93.9224 36.3215C86.744 37.1219 75.6587 37.3573 76.6472 36.6982C77.165 36.3451 79.6598 36.0862 82.2016 36.1097C88.5327 36.1803 88.4857 34.7209 87.3324 34.6268C85.8497 34.4855 85.0259 35.0034 74.882 35.0034C71.7282 35.0034 69.8924 35.2623 70.1278 35.686C70.3396 36.0626 71.3752 36.2039 72.5284 36.0156C74.9526 35.5919 76.0588 36.9571 73.8229 37.5927C71.8694 38.1576 65.656 38.0635 65.0676 37.4279C64.4086 36.7217 61.1371 36.7924 59.9133 37.5221C59.2778 37.9222 58.4305 37.8752 57.6303 37.4044C56.9713 37.0277 56.3829 36.9571 56.3593 37.2631C56.3593 38.1576 47.8394 37.9928 46.8038 37.0748C46.1448 36.5099 45.8859 36.5334 45.8624 37.169C45.8624 37.781 45.5564 37.8516 44.9916 37.3808C44.5209 37.0042 43.3441 36.8159 42.4026 36.9571C41.9555 37.0277 41.0846 37.0748 39.8843 37.0983C38.7311 36.6982 36.8717 36.3451 36.8482 35.6625C36.8482 35.6389 36.8011 35.6154 36.8011 35.5918C46.8509 35.7802 69.0216 36.3216 69.0451 35.5683C69.0451 34.9798 63.1847 34.3678 59.6308 34.5561C58.8541 34.6032 35.0595 34.203 32.4706 34.2501C32.4706 34.2266 32.4706 34.203 32.447 34.1559C32.1411 32.414 31.0113 32.6495 30.8937 34.2972C29.2462 34.3678 28.3283 34.4855 28.3283 34.6503C28.3283 35.074 29.4109 35.4506 30.6348 35.5448C30.3759 36.0156 29.8816 36.298 29.0108 36.4393C27.4104 36.6982 27.175 36.5099 27.2691 35.1211C27.4104 33.2615 27.481 33.4498 18.5374 34.0147C17.0782 33.7558 13.6419 33.591 7.099 33.0967C4.22764 32.8848 1.96821 32.7672 0.344238 32.7436V52.5165C8.25225 53.411 19.0316 54.282 31.3644 54.9646C42.1202 55.5766 60.0309 56.118 83.9903 56.5417L99.9476 56.8007C102.748 56.8477 105.832 56.4946 106.679 56.0474C108.844 54.9175 110.468 55.9532 111.715 54.9411C113.222 53.717 116.634 55.812 120.518 55.0588C124.943 54.2113 136.452 53.4816 141.7 53.2462C161.211 52.3282 160.387 51.7633 170.508 51.0806C192.42 49.5977 198.68 49.0798 200.869 48.562C202.281 48.2324 203.74 47.997 204.046 48.0911C204.352 48.1618 205.223 47.997 205.953 47.691C206.706 47.385 207.812 47.4791 208.424 47.8793C210.048 48.9386 218.238 47.5968 223.958 47.5968C233.584 47.5968 249.729 46.7024 250.482 46.1374C250.953 45.7608 251.683 45.6666 252.036 45.902C254.554 47.5498 308.051 45.5489 309.698 45.596C339.118 46.3022 343.707 46.208 344.531 44.9605C345.19 43.9483 346.249 44.3249 346.296 45.596C346.296 46.3257 346.461 46.467 346.673 45.9491C346.908 45.3842 347.426 45.3135 348.203 45.7608C352.322 48.0912 441.004 47.1496 440.981 47.8793C440.981 48.6796 445.782 48.9621 447.194 48.2324C447.994 47.8322 448.748 47.8558 449.195 48.3265C449.689 48.8444 450.63 48.7267 452.254 47.9264C453.949 47.1025 454.89 46.9848 455.714 47.5027C457.244 48.5148 470.377 47.9499 475.602 47.9735C476.943 47.9735 477.273 47.7851 476.661 47.3614C475.319 46.4434 481.015 46.7024 481.015 47.4556C481.015 48.0676 489.817 48.2324 517.519 48.1853C579.677 48.0912 609.12 48.8444 634.751 48.5855C652.709 48.4207 793.358 51.4808 800.089 54.282C800.819 54.588 801.125 54.4703 800.866 53.9995C800.631 53.5758 800.96 53.0344 801.572 52.8225C802.372 52.5165 802.584 52.6813 802.278 53.411C801.784 54.588 802.773 54.7998 817.365 56.6594C829.439 58.1895 833.063 58.3778 833.675 57.4598C833.981 56.989 834.687 57.0361 835.605 57.5304C837.676 58.6838 841.936 57.5304 845.843 57.7422C848.856 57.8835 851.044 57.2715 850.55 56.4005C850.362 56.0474 850.785 55.7414 851.444 55.7414C852.504 55.7649 853.798 54.9881 854.292 54.1643C854.481 54.2113 854.692 54.2349 854.881 54.282C856.175 54.6586 857.211 55.2706 858.599 55.4118C860.035 55.5531 861.471 55.4119 862.906 55.4354L908.213 56.2122C910.213 56.2357 912.543 56.6123 914.497 56.1886C916.144 55.812 917.604 55.2706 919.345 55.0823C920.004 55.0117 927.7 54.0701 927.724 55.0823C927.724 55.506 928.077 55.4824 928.595 55.0823C929.065 54.7057 931.278 54.282 933.49 54.1172C936.832 53.9053 937.538 54.0466 937.562 54.9881C937.585 56.4711 939.186 55.506 938.644 54.1878C938.056 52.7284 941.728 53.0344 941.751 53.8347C941.751 54.2113 942.34 54.5174 942.999 54.5174C944.011 54.4938 944.058 54.3761 943.257 53.8818C942.481 53.411 942.599 53.1521 943.799 52.7755C944.67 52.493 945.47 52.4224 945.658 52.5871C945.846 52.7754 947.07 52.6342 948.388 52.3047C951.048 51.6456 951.848 51.9986 950.742 53.3875C950.153 54.1172 950.318 54.3291 951.448 54.3055C952.248 54.3055 953.119 53.9524 953.331 53.5522C953.59 53.105 954.225 53.0815 954.978 53.4345C955.637 53.7641 957.402 53.9524 958.862 53.8347C960.321 53.717 961.686 53.8818 961.874 54.1643C962.51 55.1294 965.499 54.6821 966.676 53.4581C967.335 52.7755 967.994 52.5871 968.276 52.9873C968.817 53.7641 978.279 54.2113 978.232 52.8461C978.232 52.187 978.42 52.1634 979.102 52.8461C980.138 53.8347 988.093 53.7641 988.07 52.7755C988.046 51.7868 989.646 51.7868 989.129 52.6813C988.399 53.9289 990.353 53.3875 991.294 52.0928C992.071 51.01 992.188 50.9865 992.235 51.9987C992.306 53.4581 995.789 54.1878 996.284 52.8461C996.707 51.622 998.637 51.4573 998.425 52.6577C998.19 54.0466 1002.54 52.9873 1004.24 54.0466C1004.92 54.4703 1005.34 54.3997 1005.53 53.8112C1005.96 52.3988 1007.79 50.7746 1008.66 51.0571C1009.13 51.1983 1009.42 51.622 1009.35 52.0457C1009.18 52.9638 1012.88 52.7754 1013.56 51.8103C1013.91 51.3396 1014.31 51.3867 1014.71 51.9751C1015.07 52.493 1016.08 52.8225 1016.99 52.7048C1019.61 52.4224 1020.15 52.5871 1019.02 53.3875C1018.1 53.9995 1018.12 54.0937 1019.21 54.0701C1019.87 54.0701 1020.43 53.717 1020.43 53.3404C1020.43 52.5165 1022.86 52.0928 1022.31 53.67C1021.75 55.2942 1024.69 54.7763 1024.67 53.9759C1024.67 53.0344 1027 52.9873 1026.43 53.9289C1025.82 54.9646 1034.51 54.6115 1034.48 53.7406C1034.48 52.799 1036.81 52.7519 1036.25 53.6935C1036.01 54.0936 1036.67 54.3761 1037.8 54.329C1039.33 54.2584 1039.54 54.1172 1038.69 53.5993C1037.26 52.7519 1038.84 52.6813 1039.82 53.6229C1040.67 54.4232 1045.87 54.588 1046.98 53.8583C1047.38 53.5993 1047.83 53.6935 1047.94 54.0466C1048.09 54.4232 1052.42 54.7763 1057.62 54.894C1069.74 55.1294 1067.15 55.7179 1069.62 54.9646C1070.82 54.6115 1071.83 54.6115 1072.09 55.0117C1072.7 55.9062 1080.78 55.2235 1080.33 54.5409C1079.88 53.8583 1082.4 53.717 1081.84 54.6821C1081.6 55.0823 1082.12 55.3883 1083.06 55.3883C1093.63 55.3412 1098.9 56.2122 1099.46 54.6821C1100.12 52.8931 1102.97 55.2706 1102.15 53.2227C1101.51 51.6691 1103.61 51.4808 1104.27 53.8112C1104.97 56.2122 1105.02 55.1294 1115.21 55.6001C1122.04 55.9297 1142.93 56.2122 1147.38 56.0474C1148.98 55.9768 1151.01 55.5531 1151.81 55.0588C1152.73 54.5174 1153.13 54.4703 1152.84 54.9411C1152.21 56.0003 1157.1 56.0945 1158.99 57.0596C1160.61 57.907 1161.62 57.8599 1160.26 57.0125C1158.73 56.0709 1160.7 56.0945 1161.29 57.0125C1161.9 57.9305 1163.29 57.907 1162.7 56.989C1162.45 56.5653 1163.32 56.2357 1164.92 56.1416C1169.13 55.9062 1171.04 56.1416 1171.62 56.989C1172.03 57.5775 1172.17 57.5539 1172.17 56.8713C1172.14 55.4354 1179.56 56.0945 1180.71 56.6359C1181.39 56.9654 1182.1 56.9184 1182.31 56.5417C1182.92 55.4589 1191.56 56.4946 1192.01 55.2706C1192.17 54.8234 1193.07 55.2 1194.17 56.1651C1195.75 57.5539 1196.06 57.6481 1196.03 56.683C1196.01 55.4825 1196.81 55.1294 1197.68 55.9533C1198.41 56.6594 1203.89 56.0239 1204.95 55.1058C1205.47 54.6586 1205.8 54.6351 1205.82 55.0352C1205.82 55.3883 1206.58 56.0945 1207.47 56.5417C1210.48 58.0718 1212.13 54.9882 1214.08 56.5417C1214.88 57.1773 1215.64 57.1538 1217.43 56.4711C1218.7 55.9768 1220.98 55.6943 1222.46 55.8591C1226.65 56.2828 1236.07 55.9297 1236.09 56.6594C1236.09 56.9655 1237.12 57.0125 1238.47 56.8007C1239.81 56.5888 1241.03 56.73 1241.31 57.1773C1241.86 58.0482 1246.3 58.3072 1245.46 56.9419C1245.01 56.2122 1245.1 56.2122 1246 56.8948C1247.22 57.8364 1257.2 58.4955 1257.18 57.036C1257.13 55.3883 1262.47 56.1651 1261.67 57.5068C1261.46 57.8599 1262.8 58.1659 1264.66 58.1659C1267.72 58.1659 1278.19 58.4955 1278.22 57.6716C1278.24 56.8713 1282.45 56.7771 1282.45 57.5775C1282.45 58.3778 1285.3 59.0604 1285.28 58.213C1285.28 57.3656 1287.54 57.2714 1287 58.2836C1286.43 59.2723 1289.09 58.6132 1297.52 59.0369C1303.28 59.3194 1303.71 59.2723 1302.81 58.2366C1301.99 57.295 1302.08 56.8948 1303.31 55.5766C1304.67 54.1407 1304.84 54.1172 1305.68 55.1529C1307.03 56.8006 1313.31 59.7195 1313.78 58.8957C1314.02 58.4955 1314.51 58.4719 1315 58.8015C1315.45 59.131 1316.7 59.4606 1317.76 59.5312C1319.36 59.6489 1319.71 59.4135 1319.74 58.0482C1319.74 57.0361 1319.92 56.8242 1320.16 57.4598C1320.91 59.4606 1324.61 61.485 1323.64 59.1075C1323.08 57.6951 1324.28 57.6716 1324.84 59.084C1325.17 59.8843 1326.44 60.1197 1329.93 60.0255C1332.47 59.9549 1334.37 59.6254 1334.16 59.2958C1333.93 58.9663 1334.42 58.4955 1335.2 58.2601C1336.26 57.9776 1336.56 58.1188 1336.3 58.8015C1335.25 61.6497 1344.33 59.4606 1344.35 61.226C1344.35 61.838 1344.52 61.838 1344.85 61.2731C1345.11 60.8259 1346.61 60.5199 1348.14 60.5905C1364.05 61.3202 1363.04 62.3559 1363.68 61.2496C1363.91 60.8259 1364.67 60.6846 1365.28 60.9436C1367.37 61.8145 1386.98 61.7439 1387.78 62.4736C1387.97 62.6384 1388.51 62.4265 1389.02 61.9793C1389.68 61.4143 1389.94 61.3908 1389.97 61.9322C1389.97 62.7325 1392.86 62.5207 1395.1 61.5556C1395.9 61.2025 1396.65 61.3437 1396.98 61.9087C1397.36 62.5442 1399.78 62.8502 1404.65 62.8502C1414.61 62.8973 1412.82 63.7683 1418.8 63.886C1425.03 64.0036 1427.95 65.2041 1427.93 64.0743C1427.91 63.0385 1429.51 63.0621 1428.99 63.9566C1428.4 64.9923 1432.85 63.5329 1433.72 64.7569C1434.19 65.3924 1434.43 65.3689 1434.9 64.6392C1435.39 63.8154 1435.53 63.8154 1435.86 64.6392C1436.14 65.2983 1436.43 65.3454 1436.83 64.7805C1437.6 63.7447 1440.05 63.6976 1440.73 64.6863C1441.09 65.2041 1441.25 65.2277 1441.27 64.6863C1441.3 63.3916 1463.02 64.0743 1463.07 65.2983C1463.07 66.1928 1464.72 66.1693 1464.1 65.2512C1463.54 64.3803 1465.19 64.1213 1465.21 65.6043C1465.26 67.1814 1468.39 66.2399 1470.55 67.0167C1471.49 67.3462 1471.68 67.1814 1471.31 66.287C1470.93 65.3925 1471.21 65.11 1472.55 65.0864C1473.61 65.0629 1474.29 65.4396 1474.32 66.0751C1474.34 67.4875 1476.67 67.2521 1476.11 66.3576C1475.82 65.9339 1477.17 65.6279 1479.57 65.5808C1484.86 65.4631 1483.73 66.899 1482.44 66.4517C1481.07 65.9809 1480.6 67.6993 1483.61 67.6287C1485.5 67.5816 1485.69 67.4168 1484.89 66.5223C1484.09 65.6278 1484.13 65.5337 1485.14 65.8868C1485.83 66.1222 1486.32 66.5694 1486.35 66.9225C1486.35 67.7464 1487.99 67.7699 1487.36 66.8048C1486.58 65.6043 1487.83 65.9809 1488.96 67.2991C1489.9 68.3819 1489.95 68.3819 1489.52 67.1814C1488.58 64.545 1488.16 67.5816 1563.61 67.5581C1590.63 67.5581 1617.67 66.593 1644.67 65.6514C1651.38 65.416 1658.6 64.0507 1665.17 65.7691C1668.04 66.5223 1670.82 66.4046 1673.76 66.3811L1718.67 65.8868C1732.72 65.8868 1746.82 64.8511 1760.77 65.3689C1775.01 65.8868 1834.39 67.5345 1849.81 67.5581C1925.24 67.5816 1924.84 64.545 1923.9 67.1814C1923.47 68.3819 1923.52 68.3819 1924.46 67.2991C1925.59 65.9809 1926.84 65.6043 1926.06 66.8048C1925.43 67.7699 1927.05 67.7699 1927.08 66.9225C1927.08 66.5694 1927.59 66.1222 1928.28 65.8868C1929.29 65.5337 1929.34 65.6278 1928.53 66.5223C1927.76 67.4168 1927.95 67.5816 1929.81 67.6287C1932.82 67.6993 1932.35 65.9809 1930.98 66.4517C1929.69 66.899 1928.53 65.4631 1933.85 65.5808C1936.25 65.6279 1937.6 65.9339 1937.31 66.3576C1936.75 67.2285 1939.06 67.4875 1939.1 66.0751C1939.1 65.4396 1939.79 65.0629 1940.87 65.0864C1942.21 65.11 1942.49 65.3925 1942.12 66.287C1941.74 67.1579 1941.93 67.3462 1942.87 67.0167C1945.06 66.2399 1948.19 67.1814 1948.21 65.6043C1948.26 64.1213 1949.88 64.3803 1949.32 65.2512C1948.71 66.1693 1950.33 66.1928 1950.35 65.2983C1950.38 64.0507 1972.1 63.3916 1972.15 64.6863C1972.15 65.2041 1972.31 65.2041 1972.69 64.6863C1973.37 63.6976 1975.82 63.7447 1976.6 64.7805C1977.02 65.3454 1977.28 65.2983 1977.56 64.6392C1977.89 63.8389 1978.03 63.8389 1978.53 64.6392C1978.97 65.3925 1979.23 65.416 1979.7 64.7569C1980.57 63.5329 1985.02 65.0158 1984.43 63.9566C1983.91 63.0621 1985.52 63.0621 1985.49 64.0743C1985.47 65.2041 1988.39 64.0036 1994.62 63.886C2000.58 63.7683 1998.81 62.8973 2008.77 62.8502C2013.64 62.8502 2016.06 62.5207 2016.44 61.9087C2016.77 61.3437 2017.52 61.2025 2018.32 61.5556C2020.58 62.5207 2023.45 62.7325 2023.45 61.9322C2023.45 61.4143 2023.74 61.4143 2024.4 61.9793C2024.91 62.4265 2025.46 62.6384 2025.67 62.4736C2026.47 61.7674 2046.07 61.8145 2048.17 60.9436C2048.78 60.6846 2049.53 60.8259 2049.77 61.2496C2050.4 62.3559 2049.39 61.2967 2065.3 60.5905C2066.83 60.5199 2068.34 60.8259 2068.6 61.2731C2068.93 61.838 2069.09 61.8145 2069.09 61.226C2069.14 59.4606 2078.2 61.6497 2077.14 58.8015C2076.88 58.1188 2077.19 57.9776 2078.25 58.2601C2079.05 58.4719 2079.52 58.9427 2079.28 59.2958C2079.05 59.6489 2080.98 59.9784 2083.52 60.0255C2087 60.1197 2088.27 59.8608 2088.6 59.084C2089.17 57.6716 2090.37 57.6951 2089.8 59.1075C2088.84 61.485 2092.53 59.4371 2093.29 57.4598C2093.52 56.8007 2093.69 57.0361 2093.71 58.0482C2093.71 59.4135 2094.06 59.6724 2095.69 59.5312C2096.77 59.437 2097.99 59.1075 2098.44 58.8015C2098.91 58.4719 2099.43 58.4955 2099.66 58.8957C2100.13 59.696 2106.42 56.7771 2107.76 55.1529C2108.61 54.1172 2108.77 54.1407 2110.14 55.5766C2111.38 56.8713 2111.45 57.295 2110.63 58.2366C2109.74 59.2723 2110.16 59.3194 2115.93 59.0369C2124.35 58.6132 2127.01 59.2958 2126.45 58.2836C2125.88 57.2714 2128.17 57.3891 2128.17 58.213C2128.17 59.0604 2130.97 58.3778 2130.99 57.5775C2130.99 56.7771 2135.2 56.8948 2135.23 57.6716C2135.25 58.4719 2145.72 58.1895 2148.78 58.1659C2150.67 58.1659 2151.98 57.8599 2151.77 57.5068C2150.97 56.1651 2156.31 55.3883 2156.27 57.036C2156.22 58.519 2166.22 57.8599 2167.45 56.8948C2168.34 56.2122 2168.44 56.2122 2167.99 56.9419C2167.14 58.3072 2171.57 58.0247 2172.13 57.1773C2172.41 56.7536 2173.66 56.5888 2174.98 56.8007C2176.32 57.0125 2177.35 56.9655 2177.35 56.6594C2177.35 55.9297 2186.79 56.2592 2190.98 55.8591C2192.47 55.7178 2194.75 56.0003 2196.02 56.4711C2197.81 57.1538 2198.58 57.1773 2199.36 56.5417C2201.34 54.9882 2202.99 58.0718 2205.97 56.5417C2206.85 56.0945 2207.6 55.4119 2207.62 55.0352C2207.62 54.6115 2207.98 54.6586 2208.49 55.1058C2209.55 56.0003 2215.01 56.6359 2215.77 55.9533C2216.64 55.1294 2217.44 55.4825 2217.41 56.683C2217.41 57.6245 2217.7 57.5539 2219.27 56.1651C2220.35 55.2 2221.27 54.8234 2221.44 55.2706C2221.88 56.4946 2230.52 55.4589 2231.13 56.5417C2231.35 56.9184 2232.05 56.9654 2232.73 56.6359C2233.91 56.0945 2241.33 55.4354 2241.28 56.8713C2241.28 57.5304 2241.4 57.5775 2241.82 56.989C2242.41 56.1416 2244.31 55.9062 2248.53 56.1416C2250.13 56.2357 2251.02 56.5653 2250.74 56.989C2250.15 57.907 2251.54 57.9541 2252.15 57.0125C2252.74 56.118 2254.72 56.0945 2253.19 57.0125C2251.8 57.8599 2252.83 57.907 2254.46 57.0596C2256.34 56.0945 2261.24 56.0239 2260.6 54.9411C2260.32 54.4703 2260.72 54.5174 2261.64 55.0588C2262.44 55.5295 2264.46 55.9768 2266.06 56.0474C2270.51 56.2122 2291.41 55.9297 2298.23 55.6001C2308.43 55.1294 2308.47 56.2122 2309.18 53.8112C2309.86 51.4808 2311.93 51.6691 2311.3 53.2227C2310.45 55.2942 2313.3 52.8931 2313.98 54.6821C2314.54 56.2122 2319.82 55.3412 2330.38 55.3883C2331.33 55.3883 2331.84 55.0823 2331.61 54.6821C2331.04 53.7406 2333.59 53.8583 2333.11 54.5409C2332.67 55.2235 2340.74 55.9062 2341.35 55.0117C2341.61 54.635 2342.62 54.6115 2343.82 54.9646C2346.29 55.7179 2343.73 55.1059 2355.83 54.894C2361.05 54.7998 2365.38 54.4232 2365.5 54.0466C2365.64 53.6935 2366.09 53.5993 2366.47 53.8583C2367.59 54.588 2372.77 54.4232 2373.62 53.6229C2374.63 52.6813 2376.21 52.7519 2374.75 53.5993C2373.9 54.0937 2374.09 54.2584 2375.64 54.329C2376.77 54.3761 2377.43 54.1172 2377.2 53.6935C2376.66 52.7519 2378.99 52.799 2378.96 53.7406C2378.96 54.6115 2387.62 54.9646 2387.01 53.9289C2386.47 52.9873 2388.8 53.0344 2388.78 53.9759C2388.78 54.7763 2391.7 55.2942 2391.13 53.67C2390.59 52.0928 2393.04 52.5401 2393.01 53.3404C2393.01 53.717 2393.55 54.0466 2394.24 54.0701C2395.3 54.0937 2395.34 53.9995 2394.43 53.3875C2393.3 52.6107 2393.84 52.4224 2396.45 52.7048C2397.39 52.8225 2398.4 52.493 2398.73 51.9751C2399.13 51.3867 2399.56 51.316 2399.89 51.8103C2400.57 52.7519 2404.26 52.9638 2404.1 52.0457C2404.03 51.622 2404.31 51.1983 2404.78 51.0571C2405.65 50.7746 2407.49 52.3988 2407.91 53.8112C2408.08 54.3997 2408.52 54.4703 2409.21 54.0466C2410.9 52.9638 2415.25 54.0466 2415.02 52.6577C2414.81 51.4573 2416.74 51.622 2417.16 52.8461C2417.63 54.2113 2421.14 53.4816 2421.21 51.9987C2421.26 50.9865 2421.35 51.01 2422.15 52.0928C2423.09 53.3875 2425.05 53.9053 2424.32 52.6813C2423.8 51.7868 2425.4 51.7868 2425.38 52.7755C2425.35 53.7641 2433.31 53.8347 2434.34 52.8461C2435.02 52.187 2435.24 52.187 2435.21 52.8461C2435.19 54.2113 2444.63 53.7641 2445.17 52.9873C2445.45 52.5871 2446.11 52.7755 2446.77 53.4581C2447.95 54.6821 2450.93 55.1294 2451.57 54.1643C2451.76 53.8818 2453.12 53.717 2454.58 53.8347C2456.04 53.9524 2457.81 53.7641 2458.47 53.4345C2459.22 53.0579 2459.85 53.105 2460.11 53.5522C2460.35 53.9289 2461.2 54.282 2462 54.3055C2463.13 54.3291 2463.29 54.1172 2462.7 53.3875C2461.6 51.9986 2462.4 51.622 2465.06 52.3047C2466.37 52.6342 2467.6 52.7519 2467.79 52.5871C2467.97 52.3988 2468.8 52.4694 2469.65 52.7755C2470.85 53.1756 2470.96 53.411 2470.19 53.8818C2469.39 54.3761 2469.43 54.4938 2470.45 54.5174C2471.1 54.5174 2471.69 54.2349 2471.69 53.8347C2471.69 53.0344 2475.39 52.7284 2474.8 54.1878C2474.26 55.4825 2475.86 56.4711 2475.88 54.9881C2475.88 54.3997 2476.19 54.1172 2477.25 54.0466C2477.67 54.9175 2479.04 55.7649 2480.17 55.7414C2480.83 55.7414 2481.25 56.0239 2481.06 56.4005C2480.57 57.2715 2482.76 57.907 2485.77 57.7422C2489.67 57.5539 2493.91 58.6838 2496.01 57.5304C2496.92 57.0125 2497.63 56.989 2497.94 57.4598C2498.34 58.0718 2500.05 58.1895 2504.62 57.7657C2506.06 58.4013 2508.1 58.7544 2508.13 58.1659C2508.13 57.8835 2507.73 57.6716 2507.26 57.5068C2507.68 57.4597 2508.13 57.4127 2508.6 57.3656C2508.74 57.5304 2508.83 57.7187 2508.83 58.0012C2508.83 58.778 2509.28 59.0369 2510.22 58.8015C2511 58.6132 2512.93 58.8957 2514.58 59.4135C2514.76 59.4606 2514.91 59.5077 2515.09 59.5547C2514.1 59.6489 2513.47 59.7901 2513.35 59.9549C2513.16 60.2845 2514.46 60.5198 2516.27 60.4963C2518.6 60.4492 2519.47 60.6611 2519.26 61.2966C2518.81 62.7325 2502.34 62.5207 2494.52 63.5329C2487.18 64.4744 2479.48 61.7203 2483.32 64.7569C2485.01 66.0986 2515.71 64.9217 2517.73 64.4509C2519.31 64.0743 2522.84 63.5329 2526.48 62.9915C2528.06 63.8624 2531.78 64.4274 2532.25 63.7212C2532.49 63.3446 2533.9 63.7212 2535.48 64.5921C2537.59 65.7456 2538.42 65.9339 2538.84 65.2983C2539.85 63.7918 2540.75 66.4282 2543.52 65.2512C2544.91 64.6628 2545.45 64.8981 2547.2 66.8754C2548.35 68.1701 2549.24 68.8056 2549.27 68.3349C2549.27 67.7228 2549.55 67.6993 2550.21 68.2642C2551.72 69.5589 2557.13 65.9809 2558.56 64.6863C2561.46 62.0734 2564.17 63.9095 2564.21 62.0499C2564.21 61.1554 2564.73 61.0612 2566.8 61.4849C2568.66 61.8616 2569.23 61.791 2568.87 61.226C2568.61 60.7788 2567.74 60.4257 2566.87 60.4022C2565.74 60.3551 2564.35 59.7431 2563.34 59.2487C2564.38 57.4127 2569.48 59.3193 2571.16 59.5783C2574.71 60.0961 2578.29 60.4492 2581.86 60.6375C2589.07 61.0142 2596.29 60.8023 2603.47 60.2138C2614.41 59.3194 2625.24 57.5539 2636.07 55.6943C2648.96 55.9768 2679.42 55.0117 2679.7 54.5409C2679.87 54.2349 2674.9 53.9289 2668.62 53.8583C2667.7 53.8583 2656.21 53.7641 2646.05 53.9759C2646.28 53.9289 2647.88 53.6699 2648.45 53.5758C2662.71 51.1748 2677.14 49.1975 2691.61 49.2446C2703.69 49.2917 2715.64 52.187 2727.72 51.3396C2736.52 50.7275 2745.11 48.7973 2753.96 48.4678C2765.66 48.0441 2777.42 48.2559 2789.12 48.2324C2797.43 48.2324 2805.71 48.2324 2814.02 48.2324C2841.72 48.2795 2850.52 48.0911 2850.52 47.5027C2850.52 46.7494 2856.22 46.4905 2854.88 47.4085C2854.24 47.8322 2854.6 48.0205 2855.94 48.0205C2861.16 47.9734 2874.3 48.5384 2875.83 47.5498C2876.63 47.0319 2877.59 47.1261 2879.29 47.9735C2880.91 48.7738 2881.83 48.8915 2882.35 48.3736C2882.79 47.9029 2883.55 47.8558 2884.35 48.2795C2885.76 49.0092 2890.58 48.7267 2890.56 47.9264C2890.56 47.1967 2979.24 48.1383 2983.34 45.8079C2984.14 45.3606 2984.66 45.4312 2984.89 45.9962C2985.1 46.514 2985.27 46.3963 2985.27 45.6431C2985.29 44.372 2986.35 43.9718 2987.03 45.0075C2987.86 46.2551 2992.47 46.3493 3021.87 45.6431C3023.51 45.596 3077.01 47.5968 3079.53 45.9491C3079.88 45.7137 3080.59 45.8314 3081.08 46.1845C3081.83 46.7494 3097.98 47.6439 3107.61 47.6439C3113.3 47.6439 3121.49 48.9856 3123.14 47.9264C3123.75 47.5262 3124.86 47.4321 3125.61 47.7381C3126.36 48.0441 3127.21 48.2088 3127.52 48.1382C3127.82 48.0676 3129.28 48.2795 3130.69 48.609C3132.88 49.1269 3139.14 49.6447 3161.06 51.1277C3171.18 51.8104 3170.35 52.3753 3189.86 53.2933C3195.11 53.5287 3206.62 54.282 3211.05 55.1058C3214.91 55.8356 3218.34 53.7641 3219.85 54.9881C3221.1 56.0003 3222.72 54.9881 3224.89 56.0945C3225.76 56.5417 3228.82 56.8948 3231.62 56.8477C3263.65 56.3534 3287.16 55.7179 3300.2 54.9881C3313.9 54.2113 3325.69 53.2227 3333.76 52.2341C3334.56 52.3282 3335.43 52.4224 3336.3 52.5401V32.7671C3335.06 32.7671 3334.19 32.7672 3333.76 32.8848L3333.88 32.8378Z" fill="#2fcec3"/>
</svg>
