<svg width="13" height="12" viewBox="0 0 13 12" fill="none" xmlns="http://www.w3.org/2000/svg">
<path fill-rule="evenodd" clip-rule="evenodd" d="M2.15169 11.3822C1.19176 11.282 0.41848 10.5256 0.299397 9.56776C0.14972 8.36396 0 7.11803 0 5.84218C0 4.90335 0.081069 3.98072 0.183535 3.07914C0.20557 2.88525 0.431902 2.79179 0.585129 2.91261L4.85233 6.27716C5.80553 7.02872 7.14971 7.02872 8.10291 6.27716L12.37 2.91269C12.5232 2.79187 12.7495 2.88533 12.7716 3.07922C12.874 3.98077 12.9551 4.90337 12.9551 5.84218C12.9551 7.11803 12.8054 8.36396 12.6557 9.56776C12.5366 10.5256 11.7633 11.282 10.8034 11.3822C10.7589 11.3869 10.7144 11.3915 10.6699 11.3962C9.3159 11.5378 7.91378 11.6844 6.47757 11.6844C5.04136 11.6844 3.63924 11.5378 2.28525 11.3962C2.24068 11.3915 2.19616 11.3869 2.15169 11.3822ZM12.2578 1.13093C12.3329 1.23144 12.306 1.37129 12.2075 1.449L7.32896 5.29557C6.82967 5.68925 6.12557 5.68925 5.62628 5.29557L0.747669 1.44895C0.649099 1.37123 0.622189 1.23138 0.697379 1.13087C1.03772 0.67593 1.55914 0.36405 2.15169 0.30216C2.19615 0.29751 2.24066 0.29286 2.28523 0.2882C3.63923 0.14661 5.04135 0 6.47757 0C7.91378 0 9.3159 0.14661 10.6699 0.2882C10.7144 0.29286 10.7589 0.29751 10.8034 0.30216C11.396 0.36405 11.9174 0.67596 12.2578 1.13093Z" fill="var(--foreground)"/>
</svg>
