<svg width="109" height="112" viewBox="0 0 109 112" fill="none" xmlns="http://www.w3.org/2000/svg">
<path d="M54.5659 111.735C50.3445 111.846 46.9007 109.29 46.4563 106.069C46.123 103.514 46.123 100.903 46.1786 98.3482C46.5119 87.1837 40.9018 78.5188 34.4586 70.2981C31.6258 66.6877 27.3489 65.0214 22.6832 64.9103C18.6284 64.7992 14.5181 64.8548 10.4633 64.7993C8.63035 64.7437 6.74188 64.7437 4.96445 64.3549C2.57603 63.855 0.35416 61.0777 0.298615 58.7448C0.243071 56.3008 1.5206 54.3012 3.6313 53.4681C9.13022 51.3574 14.6292 49.0801 20.3503 47.8025C32.2369 45.1364 38.4023 36.9157 42.2349 26.3622C43.068 24.1404 42.5681 21.3632 42.5126 18.8637C42.4015 14.0869 41.9572 9.31011 42.1238 4.53327C42.1793 2.20039 43.9012 0.478426 46.4007 0.145158C48.9002 -0.188111 50.8443 1.03387 51.7331 3.20012C53.1772 6.92161 54.7324 10.7542 55.4545 14.6978C59.176 34.3051 77.0615 48.3025 97.0576 47.025C98.8906 46.9139 100.723 46.4695 102.556 46.5806C104.834 46.6917 106.945 47.6914 107.889 49.9687C109 52.5793 108.666 55.2456 106.611 57.1341C105.056 58.5782 103.001 59.7446 100.946 60.3001C85.7265 64.2993 75.5617 74.9639 66.1747 86.4617C63.7863 89.4056 63.2308 93.9046 61.9532 97.7372C60.8423 101.236 60.287 104.958 58.7317 108.235C58.0097 109.902 55.6212 110.901 54.5659 111.735ZM75.8394 58.0227C70.8404 54.7456 66.3968 52.2461 62.3976 49.1912C58.4539 46.1362 54.8991 42.5258 51.011 38.971C46.1786 44.581 41.735 49.7467 36.9027 55.3567C43.9568 59.7447 47.9561 65.9101 51.7887 72.2422C52.844 73.9641 54.3992 75.3528 56.0656 77.2968C59.676 73.5753 62.7309 70.4093 65.897 67.2988C69.063 64.2438 72.2845 61.3554 75.8394 58.0227Z" fill="#27CEC5"/>
</svg>
