<svg width="476" height="23" viewBox="0 0 476 23" fill="none" xmlns="http://www.w3.org/2000/svg">
<path fill-rule="evenodd" clip-rule="evenodd" d="M473.663 3.53934C473.663 3.53942 473.66 3.53869 473.654 3.53689C473.66 3.53836 473.663 3.53925 473.663 3.53934ZM315.898 8.95104C319.748 8.75568 323.597 8.56265 327.446 8.37252C327.51 8.36936 328.229 8.33293 329.511 8.26798C345.147 7.47591 444.523 2.44162 461.32 1.73742C462.274 1.69743 463.708 1.52544 465.342 1.31212C465.698 1.26556 466.063 1.21721 466.432 1.16836C467.718 0.997923 469.049 0.821425 470.235 0.693919C471.689 0.537484 473.164 0.423155 474.077 0.565705C474.312 0.602352 474.656 0.675359 474.981 0.860186C475.335 1.06124 475.869 1.53146 475.882 2.33709C475.893 2.9902 475.536 3.44726 475.361 3.6447C475.15 3.88354 474.889 4.09095 474.634 4.26982C472.274 5.92208 469.496 6.217 466.922 6.21592C465.935 6.2155 464.922 6.16964 463.951 6.12568C463.656 6.11232 463.365 6.09913 463.08 6.08745C461.827 6.03618 460.652 6.01167 459.548 6.09754C445.923 7.15671 432.283 8.09602 418.631 8.83177C401.889 9.73403 380.827 10.4783 357.114 11.0904C357.108 11.141 357.1 11.1903 357.09 11.2381C356.935 12.0162 356.6 12.6992 356.069 13.2428C355.546 13.779 354.908 14.1022 354.263 14.2906C353.027 14.6516 351.572 14.5699 350.241 14.394C349.211 14.258 348.104 14.0411 347.061 13.8367C346.733 13.7725 346.411 13.7095 346.1 13.6506C344.74 13.3932 343.577 13.2127 342.662 13.2244C332.638 13.3521 307.052 13.334 294.485 13.3251C292.459 13.3236 290.771 13.3224 289.542 13.3221C282.931 13.6707 276.318 14.0222 269.704 14.3738C197.082 18.2346 124.316 22.1031 51.599 22.1031C50.7706 22.1031 50.099 21.4316 50.099 20.6031C50.099 19.7747 50.7706 19.1031 51.599 19.1031C110.577 19.1031 169.577 16.5559 228.554 13.5314C190.068 13.7974 151.596 14.3156 113.096 15.078C112.311 15.0935 111.654 14.5022 111.575 13.7345C69.1634 13.8082 34.329 13.7194 15.9962 13.6055C10.9091 13.5739 7.08906 13.5404 4.72941 13.5078C3.55454 13.4916 2.72672 13.4754 2.28509 13.4593C2.17507 13.4553 2.07606 13.4509 1.99682 13.4456C1.95955 13.4431 1.90849 13.4393 1.85571 13.4331C1.8272 13.4296 1.76677 13.4206 1.72858 13.4137C1.66049 13.3992 1.43657 13.3276 1.28388 13.255C0.760886 12.7826 0.644526 11.2927 1.20635 10.6629C1.38456 10.5673 1.64572 10.477 1.72152 10.4604C1.81864 10.4413 1.90628 10.4342 1.93316 10.432L1.93524 10.4319C2.01476 10.4254 2.11242 10.421 2.21059 10.4174C3.76681 10.361 11.9378 10.322 28.1828 10.322C37.0759 10.322 45.9687 10.3237 54.8614 10.3254C111.405 10.3359 167.942 10.3464 224.478 9.93182C256.119 9.69981 265.056 9.57821 277.338 9.41112C285.715 9.29714 295.649 9.16199 315.406 8.95619C315.57 8.95448 315.734 8.95276 315.898 8.95104Z" fill="#2fcec3"/>
</svg>
