<svg xmlns="http://www.w3.org/2000/svg" viewBox="0 0 1000 1000"><title>Kate Blake</title>
<style>
    rect.bg { fill: #f3f3f3; }
    path.letters { fill: hsl(0 0 13%); }

    @media (prefers-color-scheme: dark) {
      rect.bg { fill: #212121; }
      path.letters { fill: hsl(0 0 94%); }
    }
  </style>
  <defs>
    <clipPath id="SvgjsClipPath1087">
      <rect width="1000" height="1000" x="0" y="0" rx="350" ry="350"/>
    </clipPath>
  </defs>
  <g clip-path="url(#SvgjsClipPath1087)">
    <rect class="bg" width="1000" height="1000"/>
    <g transform="matrix(3.452353210256941,0,0,3.452353210256941,100,352.7036241077825)">
      <path class="letters" d="M 156.36 84.003 L 105.36 84.003 L 105.36 0.003 L 153.24 0.003 A 71.354 71.354 0 0 1 165.981 1.037 A 44.011 44.011 0 0 1 171.9 2.523 A 27.777 27.777 0 0 1 181.166 7.419 A 18.101 18.101 0 0 1 183.36 9.603 Q 187.2 14.163 187.2 20.643 Q 187.2 27.603 183 32.583 A 20.541 20.541 0 0 1 173.353 38.645 A 34.579 34.579 0 0 1 170.28 39.483 L 170.88 37.323 Q 176.28 38.523 181.02 41.103 Q 185.76 43.683 188.7 48.003 Q 191.64 52.323 191.64 58.563 A 24.44 24.44 0 0 1 189.583 69.05 A 17.033 17.033 0 0 1 188.4 71.163 Q 185.16 76.083 179.88 78.903 Q 174.6 81.723 168.42 82.863 Q 162.24 84.003 156.36 84.003 Z M 124.56 48.363 L 124.56 66.963 L 156.84 66.963 Q 161.04 66.963 164.34 66.003 Q 167.64 65.043 169.62 62.943 Q 171.6 60.843 171.6 57.603 Q 171.6 53.883 169.08 51.903 Q 166.56 49.923 162.96 49.143 Q 159.36 48.363 156.24 48.363 L 124.56 48.363 Z M 124.56 17.043 L 124.56 33.003 L 153.48 33.003 Q 157.44 33.003 160.5 32.043 Q 163.56 31.083 165.3 29.283 Q 167.04 27.483 167.04 24.723 Q 167.04 20.523 162.9 18.783 A 25.463 25.463 0 0 0 153.503 17.05 A 40.194 40.194 0 0 0 152.76 17.043 L 124.56 17.043 Z M 94.56 0.003 L 13.32 63.963 L 8.76 46.563 L 68.28 0.003 L 94.56 0.003 Z M 20.4 84.003 L 0 84.003 L 0 0.003 L 20.4 0.003 L 20.4 84.003 Z M 94.44 84.003 L 69.6 84.003 L 33.72 40.443 L 45.96 26.523 L 94.44 84.003 Z M 209.229 84.141 A 11.074 11.074 0 0 1 206.16 82.443 Q 202.56 79.563 202.56 74.643 Q 202.56 70.443 206.22 67.143 A 13.861 13.861 0 0 1 214.301 63.979 A 27.041 27.041 0 0 1 217.08 63.843 A 22.256 22.256 0 0 1 225.034 65.079 A 11.251 11.251 0 0 1 228.06 66.783 Q 231.72 69.723 231.72 74.643 Q 231.72 78.723 228.06 82.023 A 13.819 13.819 0 0 1 220.12 85.163 A 27.524 27.524 0 0 1 217.08 85.323 A 22.602 22.602 0 0 1 209.229 84.141 Z"/>
    </g>
  </g></svg>